HIERARCHY
ROOT root     
{
	OFFSET 0.0000 0.0000 0.0000
	CHANNELS 6 Xposition Yposition Zposition Zrotation Yrotation Xrotation
	JOINT pelvis   
	{
		OFFSET 0.0000 0.0000 0.0000
		CHANNELS 3 Zrotation Yrotation Xrotation
		JOINT thorax   
		{
			OFFSET 0.0000 23.0750 -5.0000
			CHANNELS 3 Zrotation Yrotation Xrotation
			JOINT rclavicle
			{
				OFFSET 0.0000 28.0009 0.0000
				CHANNELS 3 Zrotation Yrotation Xrotation
				JOINT rhumerus 
				{
					OFFSET -18.5725 5.5939 0.0000
					CHANNELS 3 Zrotation Yrotation Xrotation
					JOINT rradius  
					{
						OFFSET -24.8459 0.0000 0.0000
						CHANNELS 3 Zrotation Yrotation Xrotation
						JOINT rhand    
						{
							OFFSET -24.5477 0.0000 0.0000
							CHANNELS 3 Zrotation Yrotation Xrotation
							End Site
							{
								OFFSET -8.1826 0.0000 0.0000
							}
						}
					}
				}
			}
			JOINT lclavicle
			{
				OFFSET 0.0000 28.0009 0.0000
				CHANNELS 3 Zrotation Yrotation Xrotation
				JOINT lhumerus 
				{
					OFFSET 18.5725 5.5939 0.0000
					CHANNELS 3 Zrotation Yrotation Xrotation
					JOINT lradius  
					{
						OFFSET 24.8459 0.0000 0.0000
						CHANNELS 3 Zrotation Yrotation Xrotation
						JOINT lhand    
						{
							OFFSET 24.5477 0.0000 0.0000
							CHANNELS 3 Zrotation Yrotation Xrotation
							End Site
							{
								OFFSET 8.1826 0.0000 0.0000
							}
						}
					}
				}
			}
			JOINT head     
			{
				OFFSET 0.0000 35.2030 0.0000
				CHANNELS 3 Zrotation Yrotation Xrotation
				End Site
				{
					OFFSET 0.0000 11.7343 0.0000
				}
			}
		}
		JOINT rfemur   
		{
			OFFSET -8.2817 0.0000 0.0000
			CHANNELS 3 Zrotation Yrotation Xrotation
			JOINT rtibia   
			{
				OFFSET 0.0000 -43.3627 0.0000
				CHANNELS 3 Zrotation Yrotation Xrotation
				JOINT rfoot    
				{
					OFFSET 0.0000 -38.2947 0.0000
					CHANNELS 3 Zrotation Yrotation Xrotation
					JOINT rtoes    
					{
						OFFSET 0.0000 0.0000 16.6054
						CHANNELS 3 Zrotation Yrotation Xrotation
						End Site
						{
							OFFSET 0.0000 0.0000 5.5351
						}
					}
				}
			}
		}
		JOINT lfemur   
		{
			OFFSET 8.2817 0.0000 0.0000
			CHANNELS 3 Zrotation Yrotation Xrotation
			JOINT ltibia   
			{
				OFFSET 0.0000 -43.3627 0.0000
				CHANNELS 3 Zrotation Yrotation Xrotation
				JOINT lfoot    
				{
					OFFSET 0.0000 -38.2947 0.0000
					CHANNELS 3 Zrotation Yrotation Xrotation
					JOINT ltoes    
					{
						OFFSET 0.0000 0.0000 16.6054
						CHANNELS 3 Zrotation Yrotation Xrotation
						End Site
						{
							OFFSET 0.0000 0.0000 5.5351
						}
					}
				}
			}
		}
	}
}
MOTION
Frames: 21
Frame Time: .0333333
17.815 80.323 7.8503 7.76872 -80.3643 29.4009 0 -0 0 -9.07932 -7.09568 10.9506 18.2619 -15.5712 -5.97385e-05 45.8238 -9.03851 11.8112 -180 75.476 -180 -3.18016 6.65183 -0.184905 -3.54195 10.1145 -6.07731e-06 -39.4688 -4.99235 -4.09433 -180 -73.5415 180 3.97647 1.74401 0.0605004 12.6615 -8.02691 -28.0797 -2.06274 -6.42761 -68.849 -0 -0 65.8508 2.51208e-05 -19.9989 11.2687 -4.06796 -5.78745e-05 -66.0408 -7.77209 -0.116979 -65.3758 -0 -0 44.5826 3.21372e-06 8.68981 -3.96077 -0.604902 1.68576e-06 -31.9949 
17.564 80.465 7.9268 6.9562 -80.0952 29.6707 0 -0 0 -9.05263 -7.63238 10.8523 18.0681 -15.8012 -3.2779e-05 45.4414 -9.51206 12.771 -180 75.7291 -180 -2.80033 6.53149 -0.159801 -3.40579 10.09 -5.71358e-06 -38.668 -5.22189 -4.57402 -180 -73.5008 180 4.32704 1.8872 0.0713014 12.5208 -7.60756 -27.6603 -1.99179 -6.50616 -69.207 -0 -0 67.1712 3.42649e-05 -20.1951 13.2107 -4.80513 5.38523e-05 -65.5973 -7.74848 0.0180112 -64.5064 -0 -0 44.2364 2.77199e-06 8.45271 -3.92859 -0.583305 3.07231e-06 -32.1616 
17.318 80.617 8.0032 5.94524 -79.8613 30.1404 0 -0 0 -8.97415 -8.16528 10.7628 17.8712 -16.0171 3.207e-06 45.0226 -9.89778 13.7118 -180 75.9519 -180 -2.48361 6.4175 -0.1393 -3.30526 10.0915 -4.31234e-07 -37.9635 -5.39772 -5.07522 -180 -73.4886 180 4.70364 2.03583 0.083602 12.4129 -7.18057 -27.235 -1.85314 -6.58209 -69.6237 -0 -0 68.4573 3.54879e-05 -20.316 15.2738 -5.57069 5.00994e-05 -65.365 -7.67232 0.172367 -63.6398 -0 -0 43.8756 -1.01504e-06 8.26309 -3.88607 -0.563897 6.03863e-06 -32.3357 
17.08 80.78 8.0798 4.72984 -79.675 30.8145 0 -0 0 -8.84076 -8.67291 10.6776 17.6717 -16.213 7.82922e-05 44.585 -10.2164 14.611 -180 76.1346 -180 -2.23376 6.31069 -0.123204 -3.23887 10.1014 8.21519e-07 -37.3668 -5.5103 -5.59396 -180 -73.496 180 5.0842 2.18176 0.0968957 12.3464 -6.7714 -26.8053 -1.65702 -6.64726 -70.1033 -0 -0 69.6983 -7.09551e-05 -20.3123 17.4516 -6.33427 -6.39879e-06 -65.3758 -7.53991 0.34288 -62.7808 -0 -0 43.5028 2.08564e-06 8.13102 -3.83343 -0.547299 9.02752e-07 -32.5031 
16.851 80.953 8.1561 3.32778 -79.5437 31.6858 0 -0 0 -8.66745 -9.13247 10.5929 17.471 -16.3924 -4.99178e-05 44.1426 -10.4772 15.457 -180 76.2915 -180 -2.05096 6.21095 -0.111297 -3.19396 10.123 -3.49018e-06 -36.8857 -5.57837 -6.11452 -180 -73.5285 180 5.45202 2.32041 0.110502 12.335 -6.39793 -26.3697 -1.42434 -6.68566 -70.6472 -0 -0 70.8786 2.54103e-06 -20.1337 19.7369 -7.05775 -1.84492e-05 -65.6813 -7.35532 0.530229 -61.9345 -0 -0 43.1145 -2.72554e-07 8.06431 -3.7673 -0.533396 2.85791e-07 -32.6759 
16.634 81.137 8.232 1.73769 -79.4801 32.7551 0 -0 0 -8.46031 -9.52704 10.5057 17.2692 -16.5532 0.000122942 43.7108 -10.6908 16.2367 -180 76.4086 -180 -1.92823 6.11742 -0.103001 -3.16545 10.1498 -3.12547e-06 -36.5191 -5.60338 -6.631 -180 -73.5797 180 5.78639 2.44509 0.123599 12.3821 -6.07293 -25.9259 -1.17092 -6.6868 -71.2607 -0 -0 71.9838 5.2596e-05 -19.7288 22.1019 -7.68493 -4.58595e-05 -66.2345 -7.12218 0.734891 -61.1043 -0 -0 42.7114 -7.54283e-06 8.06768 -3.68548 -0.522001 -4.5376e-06 -32.8577 
16.43 81.332 8.3075 -0.0681164 -79.4779 34.0581 0 -0 0 -8.22007 -9.84637 10.4131 17.0652 -16.688 0.000111583 43.3049 -10.8767 16.935 -180 76.4915 -180 -1.84958 6.03149 -0.0974977 -3.15442 10.1706 1.04524e-05 -36.2602 -5.5727 -7.14466 -180 -73.6385 180 6.06938 2.54984 0.135202 12.4833 -5.7993 -25.4737 -0.90819 -6.64257 -71.9456 -0 -0 72.9973 3.24319e-05 -19.0604 24.4945 -8.15203 -1.08232e-05 -66.9639 -6.84465 0.959127 -60.2954 -0 -0 42.2936 4.05301e-06 8.13974 -3.58958 -0.513096 -6.38275e-07 -33.021 
16.241 81.536 8.3824 -2.09919 -79.5515 35.6033 0 -0 0 -7.95523 -10.0822 10.3169 16.8624 -16.8031 5.12798e-06 42.9296 -11.0302 17.5494 -180 76.543 -180 -1.80382 5.95166 -0.0938015 -3.15716 10.1888 -6.93564e-06 -36.1024 -5.49515 -7.6496 -180 -73.7063 180 6.28825 2.63084 0.144498 12.6345 -5.57564 -25.0109 -0.64777 -6.54771 -72.7025 -0 -0 73.9058 0.000142064 -18.0993 26.8553 -8.39892 -4.8023e-05 -67.7845 -6.52991 1.20528 -59.5084 -0 -0 41.8592 -7.4672e-06 8.27819 -3.47786 -0.505697 4.28653e-06 -33.1814 
16.066 81.749 8.4571 -4.37983 -79.6902 37.4198 0 -0 0 -7.66658 -10.2339 10.2198 16.6595 -16.8959 -0.000116041 42.5916 -11.1537 18.0764 -180 76.5691 -180 -1.77532 5.87747 -0.091196 -3.17522 10.2024 5.62758e-06 -36.0352 -5.36522 -8.14768 -180 -73.7701 180 6.43396 2.6865 0.151 12.8254 -5.39302 -24.5402 -0.393589 -6.40304 -73.5353 -0 -0 74.6988 -0.000120132 -16.8414 29.115 -8.37841 -4.16517e-05 -68.5554 -6.18465 1.47602 -58.7446 -0 -0 41.4114 4.80481e-06 8.47647 -3.35146 -0.499202 1.13904e-06 -33.3379 
15.908 81.968 8.5311 -6.96253 -79.8833 39.5634 0 -0 0 -7.34982 -10.309 10.1245 16.4561 -16.9593 -3.49013e-05 42.2934 -11.2538 18.5117 -180 76.5674 -180 -1.74975 5.80989 -0.0887965 -3.2151 10.2105 -6.13734e-06 -36.0429 -5.17002 -8.64294 -180 -73.825 180 6.50608 2.71628 0.154398 13.041 -5.23461 -24.064 -0.143218 -6.20971 -74.4399 -0 -0 75.3595 -3.77293e-05 -15.3283 31.2086 -8.08339 -1.15921e-05 -69.3553 -5.81538 1.77705 -58.0075 -0 -0 40.9523 -6.73607e-06 8.72136 -3.21545 -0.492991 8.87282e-07 -33.4585 
15.767 82.193 8.6053 -9.87556 -80.123 42.0587 0 -0 0 -7.00475 -10.3146 10.039 16.2559 -16.9982 3.93491e-05 42.0277 -11.3191 18.859 -180 76.5342 -180 -1.72039 5.74715 -0.086399 -3.27875 10.2183 1.93171e-07 -36.1176 -4.91411 -9.13507 -180 -73.8612 180 6.50778 2.72132 0.1547 13.2671 -5.08718 -23.587 0.108976 -5.97942 -75.4199 -0 -0 75.8865 0.000114919 -13.6087 33.0707 -7.52542 -7.70594e-05 -70.0411 -5.42933 2.1077 -57.2977 -0 -0 40.4851 8.84302e-06 9.00371 -3.07032 -0.486291 -1.14569e-06 -33.5615 
15.642 82.421 8.6805 -13.1581 -80.394 44.9467 0 -0 0 -6.62691 -10.2629 9.97174 16.0605 -17.0164 -3.20682e-05 41.7915 -11.3446 19.1211 -180 76.4718 -180 -1.68276 5.68844 -0.0835987 -3.3721 10.2287 2.54785e-06 -36.2445 -4.59385 -9.62671 -180 -73.8784 180 6.4494 2.70354 0.152302 13.4904 -4.93456 -23.1177 0.373728 -5.72446 -76.4694 -0 -0 76.2751 -1.98473e-05 -11.7728 34.6542 -6.7585 -6.73386e-05 -70.6139 -5.03303 2.46855 -56.6174 -0 -0 40.0137 8.07963e-07 9.31091 -2.92101 -0.478708 1.75027e-06 -33.6425 
15.534 82.649 8.7564 -16.8438 -80.6788 48.2616 0 -0 0 -6.21008 -10.1711 9.92753 15.8712 -17.0076 5.22577e-05 41.5731 -11.3287 19.3004 -180 76.3756 -180 -1.63651 5.63295 -0.0805015 -3.50052 10.2472 -4.05463e-06 -36.4117 -4.20579 -10.1201 -180 -73.8718 180 6.34698 2.66683 0.1479 13.6947 -4.76005 -22.6626 0.663119 -5.45323 -77.5899 -0 -0 76.5178 1.51143e-05 -9.93828 35.9458 -5.87259 -1.80081e-05 -71.2597 -4.63223 2.86238 -55.9691 -0 -0 39.5465 4.02037e-07 9.62663 -2.7716 -0.469906 -6.67565e-06 -33.6829 
15.444 82.875 8.8334 -20.9476 -80.9503 52.0241 0 -0 0 -5.75138 -10.0541 9.91341 15.6924 -16.9748 -5.57456e-05 41.3644 -11.2666 19.4032 -180 76.2416 -180 -1.58637 5.5793 -0.0772983 -3.66728 10.2795 -4.2345e-07 -36.6075 -3.75279 -10.6145 -180 -73.8365 180 6.21841 2.61479 0.142099 13.872 -4.55175 -22.2335 0.988867 -5.17849 -78.7806 -0 -0 76.616 4.44399e-05 -8.21062 36.9374 -4.95576 2.87098e-05 -71.9571 -4.233 3.28689 -55.3601 -0 -0 39.0901 -5.71077e-06 9.93869 -2.62542 -0.459896 7.13928e-06 -33.6848 
15.372 83.097 8.9137 -25.4167 -81.1955 56.1781 0 -0 0 -5.24835 -9.92047 9.93774 15.529 -16.927 -1.76726e-05 41.1544 -11.1495 19.4352 -180 76.0722 -180 -1.54151 5.52485 -0.074401 -3.87619 10.3235 -8.34366e-06 -36.8236 -3.24095 -11.1102 -180 -73.7775 180 6.08122 2.55042 0.135498 14.0087 -4.31018 -21.8414 1.35897 -4.91415 -80.0344 -0 -0 76.5733 7.13242e-05 -6.67807 37.6401 -4.09006 -1.98622e-05 -72.7536 -3.84009 3.7337 -54.7928 -0 -0 38.6474 -1.07389e-06 10.2416 -2.48372 -0.448594 7.39116e-07 -33.6646 
15.319 83.312 8.9959 -30.1991 -81.3915 60.6797 0 -0 0 -4.70218 -9.78944 9.99881 15.3815 -16.8574 -0.000111871 40.9343 -10.986 19.3997 -180 75.8591 -180 -1.50889 5.47058 -0.0721 -4.12614 10.3882 6.17254e-06 -37.0467 -2.67157 -11.6034 -180 -73.6875 180 5.9556 2.4781 0.128897 14.1036 -4.02693 -21.4902 1.77751 -4.66323 -81.3536 -0 -0 76.3883 -5.09474e-05 -5.41323 38.0757 -3.3445 -5.28886e-05 -73.5829 -3.46099 4.20342 -54.2816 -0 -0 38.2307 -2.09511e-06 10.5203 -2.34956 -0.436198 -2.19958e-06 -33.6095 
15.287 83.516 9.0824 -35.1813 -81.5315 65.418 0 -0 0 -4.11436 -9.66019 10.1011 15.255 -16.7812 -3.1907e-05 40.6972 -10.7675 19.3023 -180 75.6013 -180 -1.49991 5.41372 -0.0709004 -4.41906 10.4642 -5.5266e-06 -37.2691 -2.05249 -12.0932 -180 -73.5708 180 5.85521 2.40026 0.1228 14.1503 -3.71561 -21.1943 2.24247 -4.43286 -82.73 -0 -0 76.0504 -1.42341e-05 -4.45165 38.2924 -2.76205 1.6319e-05 -74.6836 -3.09915 4.68397 -53.8299 -0 -0 37.844 6.0607e-06 10.7768 -2.22367 -0.423201 3.12789e-06 -33.5405 
15.278 83.708 9.1723 -40.2308 -81.6031 70.2684 0 -0 0 -3.49344 -9.54477 10.24 15.1512 -16.6905 -1.89349e-05 40.4425 -10.5065 19.1454 -180 75.3054 -180 -1.5197 5.35657 -0.0710996 -4.75018 10.556 -9.16212e-07 -37.4818 -1.38768 -12.5761 -180 -73.4334 180 5.79276 2.32089 0.117398 14.1517 -3.37782 -20.954 2.74483 -4.2205 -84.1659 -0 -0 75.5598 -2.28905e-05 -3.78543 38.3058 -2.34853 -3.03347e-05 -75.7548 -2.76242 5.17325 -53.4534 -0 -0 37.4956 2.28509e-06 11.0025 -2.10682 -0.409499 -5.05349e-06 -33.4513 
15.292 83.884 9.2662 -45.2152 -81.6156 75.099 0 -0 0 -2.84778 -9.44239 10.4118 15.0734 -16.592 8.86602e-06 40.1704 -10.2065 18.932 -180 74.9707 -180 -1.57338 5.29943 -0.0727992 -5.1155 10.6579 7.07641e-06 -37.6773 -0.6815 -13.048 -180 -73.2708 180 5.7735 2.24295 0.113097 14.1078 -3.0279 -20.7744 3.26977 -4.02409 -85.6507 -0 -0 74.9025 3.37286e-05 -3.37896 38.1578 -2.08918 -1.87953e-05 -76.8024 -2.45591 5.66338 -53.1589 -0 -0 37.1918 3.8467e-06 11.1989 -1.99974 -0.395795 1.33009e-06 -33.351 
15.331 84.042 9.3643 -50.0221 -81.5674 79.8072 0 -0 0 -2.18917 -9.3512 10.6119 15.0216 -16.4892 -0.000124515 39.8856 -9.87507 18.6647 -180 74.5946 -180 -1.66226 5.24454 -0.0760987 -5.5103 10.7653 2.0898e-06 -37.8502 0.062261 -13.5063 -180 -73.0872 180 5.79845 2.16897 0.1099 14.0228 -2.67779 -20.6538 3.79687 -3.83666 -87.1773 -0 -0 74.0563 -6.46447e-06 -3.17138 37.8921 -1.94901 3.9141e-05 -77.7874 -2.18559 6.14892 -52.9564 -0 -0 36.9393 -8.09997e-07 11.3671 -1.90397 -0.382698 2.45329e-06 -33.2424 
15.395 84.18 9.4664 -54.5608 -81.478 84.3019 0 -0 0 -1.52893 -9.26683 10.8336 14.9946 -16.3826 4.33491e-05 39.5949 -9.5194 18.347 -180 74.193 -180 -1.78462 5.19397 -0.0810008 -5.92801 10.873 -1.67865e-06 -37.9954 0.840668 -13.9478 -180 -72.8808 180 5.86282 2.10149 0.107601 13.9024 -2.3395 -20.5882 4.30394 -3.65176 -88.7349 -0 -0 73.0052 -2.87839e-05 -3.07904 37.5375 -1.87719 9.59246e-06 -78.4996 -1.95642 6.62621 -52.8549 -0 -0 36.7417 5.66179e-06 11.5097 -1.82143 -0.370803 2.90719e-07 -33.1273 
